# xmcd
#
# Track frame offsets:
#	150
#	16832
#	28220
#	41617
#	52520
#	65275
#	83840
#	99212
#	112087
#	126182
#	142282
#	153840
#	166795
#	185177
#	199595
#	212807
#	223920
#	239162
#	257387
#	270532
#	284877
#
# Disc length: 4156 seconds
#
# Revision: 0
# Processed by: cddbd v1.5.2PL0 Copyright (c) Steve Scherf et al.
# Submitted via: EasyCDDAExtractor 16.0.6.1
#
DISCID=38103a15
DTITLE=Άνευ ερμηνευτού - Χάλκινα Κοζάνης-Κομπ. Δημ. Κώτσικα
DYEAR=2002
DGENRE=Παραδοσιακή
TTITLE0=Τρανός χορός
TTITLE1=Μη μ' αρραβωνιάζεις 'κόμα
TTITLE2=Καπετάν Λούκας
TTITLE3=Μπερντές
TTITLE4=Μιά γαλάζια περιστέρα
TTITLE5=Έντεκα ή αϊβασιλιάτικος
TTITLE6=Ντούλας
TTITLE7=Μάννα μου τα λουλούδια μου
TTITLE8=Ματσκαντάνα
TTITLE9=Νυφιάτικο
TTITLE10=Τσάμικος
TTITLE11=Μπεράτ
TTITLE12=Μάης Σιάτιστας και Γαλατινής
TTITLE13=Μάης Βλάστης
TTITLE14=Σταμούλου
TTITLE15=Νικολός
TTITLE16=Σούστα Σιάτιστας
TTITLE17=Αυτοσχεδιασμός-Σαμπαϊ
TTITLE18=Μήλο μου κόκκινο
TTITLE19=Γκάϊντα
TTITLE20=Συρτοί Μακεδονίας
EXTD=
EXTT0=
EXTT1=
EXTT2=
EXTT3=
EXTT4=
EXTT5=
EXTT6=
EXTT7=
EXTT8=
EXTT9=
EXTT10=
EXTT11=
EXTT12=
EXTT13=
EXTT14=
EXTT15=
EXTT16=
EXTT17=
EXTT18=
EXTT19=
EXTT20=
PLAYORDER=
